<mxfile host="app.diagrams.net" modified="2024-03-26T10:11:19.702Z" agent="Mozilla/5.0 (Macintosh; Intel Mac OS X 10_15_7) AppleWebKit/605.1.15 (KHTML, like Gecko) Version/17.1 Safari/605.1.15" version="24.1.0" etag="NqcLrw7stW_KLQ54RWzF" type="github">
  <diagram name="Page-1" id="OngZybxSdLaPH5-OwY0y">
    <mxGraphModel>
      <root>
        <mxCell id="0" />
        <mxCell id="1" parent="0" />
      </root>
    </mxGraphModel>
  </diagram>
</mxfile>
